<mxfile host="app.diagrams.net" modified="2024-05-26T17:29:42.886Z" agent="Mozilla/5.0 (Windows NT 10.0; Win64; x64) AppleWebKit/537.36 (KHTML, like Gecko) Chrome/125.0.0.0 Safari/537.36 Edg/125.0.0.0" etag="03dswO3ODx7MBoLtE7iL" version="24.4.8" type="google" pages="4">
  <diagram name="MAIN và ADC0808_Read" id="BzKU79lSELJ7G68cP1i7">
    <mxGraphModel dx="1633" dy="673" grid="1" gridSize="10" guides="1" tooltips="1" connect="1" arrows="1" fold="1" page="1" pageScale="1" pageWidth="850" pageHeight="1100" math="0" shadow="0">
      <root>
        <mxCell id="0" />
        <mxCell id="1" parent="0" />
        <mxCell id="Xrtud2a_HAtumrKnT0s8-1" value="BẮT ĐẦU" style="ellipse;whiteSpace=wrap;html=1;" parent="1" vertex="1">
          <mxGeometry x="165" y="40" width="90" height="40" as="geometry" />
        </mxCell>
        <mxCell id="Xrtud2a_HAtumrKnT0s8-3" value="IE=10001010B&lt;div&gt;TMOD=00010010B&lt;/div&gt;" style="rounded=0;whiteSpace=wrap;html=1;" parent="1" vertex="1">
          <mxGeometry x="150" y="120" width="120" height="80" as="geometry" />
        </mxCell>
        <mxCell id="Xrtud2a_HAtumrKnT0s8-4" value="TH0=236&lt;div&gt;TL0=256&lt;/div&gt;&lt;div&gt;TH1=3C&lt;/div&gt;&lt;div&gt;TL1=B0&lt;/div&gt;" style="rounded=0;whiteSpace=wrap;html=1;" parent="1" vertex="1">
          <mxGeometry x="150" y="240" width="120" height="70" as="geometry" />
        </mxCell>
        <mxCell id="gE6TN4jImQfPaR2NvSKT-3" value="" style="endArrow=classic;html=1;rounded=0;" parent="1" edge="1">
          <mxGeometry width="50" height="50" relative="1" as="geometry">
            <mxPoint x="209.5" y="80" as="sourcePoint" />
            <mxPoint x="209.5" y="120" as="targetPoint" />
          </mxGeometry>
        </mxCell>
        <mxCell id="gE6TN4jImQfPaR2NvSKT-4" value="" style="endArrow=classic;html=1;rounded=0;" parent="1" edge="1">
          <mxGeometry width="50" height="50" relative="1" as="geometry">
            <mxPoint x="209.5" y="200" as="sourcePoint" />
            <mxPoint x="209.5" y="240" as="targetPoint" />
            <Array as="points">
              <mxPoint x="209.5" y="240" />
            </Array>
          </mxGeometry>
        </mxCell>
        <mxCell id="gE6TN4jImQfPaR2NvSKT-6" value="P0 =0FFH&lt;div&gt;P1=0FFH&lt;/div&gt;&lt;div&gt;P2=0FFH&lt;/div&gt;" style="rounded=0;whiteSpace=wrap;html=1;" vertex="1" parent="1">
          <mxGeometry x="150" y="470" width="120" height="60" as="geometry" />
        </mxCell>
        <mxCell id="6kXviOvdEGM6T5U4Ttzy-2" value="R4 = 00H&lt;div&gt;R5 = 00H&lt;/div&gt;" style="rounded=0;whiteSpace=wrap;html=1;" vertex="1" parent="1">
          <mxGeometry x="150" y="570" width="120" height="60" as="geometry" />
        </mxCell>
        <mxCell id="6kXviOvdEGM6T5U4Ttzy-3" value="SETB ET0&amp;nbsp;&lt;div&gt;SETB ET1&amp;nbsp;&lt;/div&gt;&lt;div&gt;EA =&amp;nbsp;&lt;/div&gt;&lt;div data-sider-select-id=&quot;0ce1acc4-7611-4564-a327-6b56983f53f8&quot;&gt;TR0 = 1&lt;/div&gt;&lt;div&gt;TR1 = 1&lt;/div&gt;" style="rounded=0;whiteSpace=wrap;html=1;" vertex="1" parent="1">
          <mxGeometry x="145" y="350" width="130" height="80" as="geometry" />
        </mxCell>
        <mxCell id="gE6TN4jImQfPaR2NvSKT-8" value="" style="endArrow=classic;html=1;rounded=0;" edge="1" parent="1">
          <mxGeometry width="50" height="50" relative="1" as="geometry">
            <mxPoint x="209.5" y="310" as="sourcePoint" />
            <mxPoint x="209.5" y="350" as="targetPoint" />
            <Array as="points">
              <mxPoint x="209.5" y="350" />
            </Array>
          </mxGeometry>
        </mxCell>
        <mxCell id="gE6TN4jImQfPaR2NvSKT-9" value="" style="endArrow=classic;html=1;rounded=0;" edge="1" parent="1">
          <mxGeometry width="50" height="50" relative="1" as="geometry">
            <mxPoint x="209.5" y="430" as="sourcePoint" />
            <mxPoint x="209.5" y="470" as="targetPoint" />
            <Array as="points">
              <mxPoint x="209.5" y="470" />
            </Array>
          </mxGeometry>
        </mxCell>
        <mxCell id="gE6TN4jImQfPaR2NvSKT-10" value="" style="endArrow=classic;html=1;rounded=0;" edge="1" parent="1">
          <mxGeometry width="50" height="50" relative="1" as="geometry">
            <mxPoint x="209.5" y="530" as="sourcePoint" />
            <mxPoint x="209.5" y="570" as="targetPoint" />
            <Array as="points">
              <mxPoint x="209.5" y="570" />
            </Array>
          </mxGeometry>
        </mxCell>
        <mxCell id="gE6TN4jImQfPaR2NvSKT-11" value="R0=0" style="rounded=0;whiteSpace=wrap;html=1;" vertex="1" parent="1">
          <mxGeometry x="150" y="670" width="120" height="60" as="geometry" />
        </mxCell>
        <mxCell id="gE6TN4jImQfPaR2NvSKT-12" value="" style="endArrow=classic;html=1;rounded=0;" edge="1" parent="1">
          <mxGeometry width="50" height="50" relative="1" as="geometry">
            <mxPoint x="209.5" y="630" as="sourcePoint" />
            <mxPoint x="209.5" y="670" as="targetPoint" />
            <Array as="points">
              <mxPoint x="209.5" y="670" />
            </Array>
          </mxGeometry>
        </mxCell>
        <mxCell id="gE6TN4jImQfPaR2NvSKT-13" value="" style="endArrow=classic;html=1;rounded=0;" edge="1" parent="1">
          <mxGeometry width="50" height="50" relative="1" as="geometry">
            <mxPoint x="209.5" y="730" as="sourcePoint" />
            <mxPoint x="209.5" y="770" as="targetPoint" />
            <Array as="points">
              <mxPoint x="209.5" y="770" />
            </Array>
          </mxGeometry>
        </mxCell>
        <mxCell id="gE6TN4jImQfPaR2NvSKT-14" value="convertToBrightness" style="rounded=0;whiteSpace=wrap;html=1;" vertex="1" parent="1">
          <mxGeometry x="150" y="770" width="120" height="60" as="geometry" />
        </mxCell>
        <mxCell id="gE6TN4jImQfPaR2NvSKT-16" value="" style="endArrow=none;html=1;rounded=0;" edge="1" parent="1">
          <mxGeometry width="50" height="50" relative="1" as="geometry">
            <mxPoint x="209.5" y="880" as="sourcePoint" />
            <mxPoint x="209.5" y="830" as="targetPoint" />
          </mxGeometry>
        </mxCell>
        <mxCell id="gE6TN4jImQfPaR2NvSKT-17" value="" style="endArrow=none;html=1;rounded=0;" edge="1" parent="1">
          <mxGeometry width="50" height="50" relative="1" as="geometry">
            <mxPoint x="80" y="880" as="sourcePoint" />
            <mxPoint x="210" y="880" as="targetPoint" />
          </mxGeometry>
        </mxCell>
        <mxCell id="gE6TN4jImQfPaR2NvSKT-18" value="" style="endArrow=none;html=1;rounded=0;" edge="1" parent="1">
          <mxGeometry width="50" height="50" relative="1" as="geometry">
            <mxPoint x="80" y="880" as="sourcePoint" />
            <mxPoint x="80" y="650" as="targetPoint" />
          </mxGeometry>
        </mxCell>
        <mxCell id="gE6TN4jImQfPaR2NvSKT-19" value="" style="endArrow=classic;html=1;rounded=0;" edge="1" parent="1">
          <mxGeometry width="50" height="50" relative="1" as="geometry">
            <mxPoint x="80" y="650" as="sourcePoint" />
            <mxPoint x="210" y="650" as="targetPoint" />
          </mxGeometry>
        </mxCell>
        <mxCell id="6kXviOvdEGM6T5U4Ttzy-5" value="ADC0808_A&amp;nbsp; = 0&lt;div&gt;ADC0808_B = 0&lt;br&gt;&lt;div&gt;ADC0808_C = 0&lt;br&gt;&lt;/div&gt;&lt;/div&gt;&lt;div&gt;ADC0808_ALE = 0&lt;/div&gt;&lt;div&gt;ADC0808_START = 0&lt;/div&gt;" style="rounded=0;whiteSpace=wrap;html=1;" vertex="1" parent="1">
          <mxGeometry x="540" y="120" width="150" height="100" as="geometry" />
        </mxCell>
        <mxCell id="6kXviOvdEGM6T5U4Ttzy-6" value="BẮT ĐẦU" style="ellipse;whiteSpace=wrap;html=1;" vertex="1" parent="1">
          <mxGeometry x="570" y="30" width="90" height="40" as="geometry" />
        </mxCell>
        <mxCell id="6kXviOvdEGM6T5U4Ttzy-7" value="&lt;span style=&quot;color: rgba(0, 0, 0, 0); font-family: monospace; font-size: 0px; text-align: start;&quot;&gt;%3CmxGraphModel%3E%3Croot%3E%3CmxCell%20id%3D%220%22%2F%3E%3CmxCell%20id%3D%221%22%20parent%3D%220%22%2F%3E%3CmxCell%20id%3D%222%22%20value%3D%22B%E1%BA%AET%20%C4%90%E1%BA%A6U%22%20style%3D%22ellipse%3BwhiteSpace%3Dwrap%3Bhtml%3D1%3B%22%20vertex%3D%221%22%20parent%3D%221%22%3E%3CmxGeometry%20x%3D%22165%22%20y%3D%2240%22%20width%3D%2290%22%20height%3D%2240%22%20as%3D%22geometry%22%2F%3E%3C%2FmxCell%3E%3C%2Froot%3E%3C%2FmxGraphModel%3E&lt;/span&gt;" style="text;html=1;align=center;verticalAlign=middle;resizable=0;points=[];autosize=1;strokeColor=none;fillColor=none;" vertex="1" parent="1">
          <mxGeometry x="590" y="48" width="20" height="30" as="geometry" />
        </mxCell>
        <mxCell id="6kXviOvdEGM6T5U4Ttzy-9" value="&lt;span style=&quot;color: rgb(8, 28, 54); font-family: SegoeuiPc, &amp;quot;Segoe UI&amp;quot;, &amp;quot;San Francisco&amp;quot;, &amp;quot;Helvetica Neue&amp;quot;, Helvetica, &amp;quot;Lucida Grande&amp;quot;, Roboto, Ubuntu, Tahoma, &amp;quot;Microsoft Sans Serif&amp;quot;, Arial, sans-serif; font-size: 15px; letter-spacing: 0.2px; text-align: start; white-space-collapse: preserve; background-color: rgb(229, 239, 255);&quot;&gt;SETB ADC0808_OE &lt;/span&gt;&lt;div&gt;&lt;span style=&quot;color: rgb(8, 28, 54); font-family: SegoeuiPc, &amp;quot;Segoe UI&amp;quot;, &amp;quot;San Francisco&amp;quot;, &amp;quot;Helvetica Neue&amp;quot;, Helvetica, &amp;quot;Lucida Grande&amp;quot;, Roboto, Ubuntu, Tahoma, &amp;quot;Microsoft Sans Serif&amp;quot;, Arial, sans-serif; font-size: 15px; letter-spacing: 0.2px; text-align: start; white-space-collapse: preserve; background-color: rgb(229, 239, 255);&quot;&gt;&lt;br&gt;&lt;/span&gt;&lt;/div&gt;" style="rounded=0;whiteSpace=wrap;html=1;strokeColor=default;align=center;verticalAlign=middle;fontFamily=Helvetica;fontSize=12;fontColor=default;fillColor=default;" vertex="1" parent="1">
          <mxGeometry x="540" y="400" width="150" height="60" as="geometry" />
        </mxCell>
        <mxCell id="6kXviOvdEGM6T5U4Ttzy-10" value="&lt;span style=&quot;color: rgb(8, 28, 54); font-family: SegoeuiPc, &amp;quot;Segoe UI&amp;quot;, &amp;quot;San Francisco&amp;quot;, &amp;quot;Helvetica Neue&amp;quot;, Helvetica, &amp;quot;Lucida Grande&amp;quot;, Roboto, Ubuntu, Tahoma, &amp;quot;Microsoft Sans Serif&amp;quot;, Arial, sans-serif; font-size: 15px; letter-spacing: 0.2px; text-align: start; white-space-collapse: preserve; background-color: rgb(229, 239, 255);&quot;&gt;A =ADC0808_DATA&lt;/span&gt;" style="rounded=0;whiteSpace=wrap;html=1;strokeColor=default;align=center;verticalAlign=middle;fontFamily=Helvetica;fontSize=12;fontColor=default;fillColor=default;" vertex="1" parent="1">
          <mxGeometry x="545" y="500" width="145" height="60" as="geometry" />
        </mxCell>
        <mxCell id="gE6TN4jImQfPaR2NvSKT-20" value="ADC0808_EOC=0" style="rhombus;whiteSpace=wrap;html=1;" vertex="1" parent="1">
          <mxGeometry x="540" y="260" width="150" height="100" as="geometry" />
        </mxCell>
        <mxCell id="6kXviOvdEGM6T5U4Ttzy-11" value="&lt;span style=&quot;color: rgb(8, 28, 54); font-family: SegoeuiPc, &amp;quot;Segoe UI&amp;quot;, &amp;quot;San Francisco&amp;quot;, &amp;quot;Helvetica Neue&amp;quot;, Helvetica, &amp;quot;Lucida Grande&amp;quot;, Roboto, Ubuntu, Tahoma, &amp;quot;Microsoft Sans Serif&amp;quot;, Arial, sans-serif; font-size: 15px; letter-spacing: 0.2px; text-align: start; white-space-collapse: preserve; background-color: rgb(229, 239, 255);&quot;&gt; ADC0808_OE =0&lt;/span&gt;" style="rounded=0;whiteSpace=wrap;html=1;strokeColor=default;align=center;verticalAlign=middle;fontFamily=Helvetica;fontSize=12;fontColor=default;fillColor=default;" vertex="1" parent="1">
          <mxGeometry x="530" y="600" width="170" height="60" as="geometry" />
        </mxCell>
        <mxCell id="gE6TN4jImQfPaR2NvSKT-21" value="" style="endArrow=classic;html=1;rounded=0;" edge="1" parent="1">
          <mxGeometry width="50" height="50" relative="1" as="geometry">
            <mxPoint x="614.5" y="70" as="sourcePoint" />
            <mxPoint x="615" y="120" as="targetPoint" />
          </mxGeometry>
        </mxCell>
        <mxCell id="gE6TN4jImQfPaR2NvSKT-23" value="" style="endArrow=classic;html=1;rounded=0;" edge="1" parent="1">
          <mxGeometry width="50" height="50" relative="1" as="geometry">
            <mxPoint x="614.5" y="220" as="sourcePoint" />
            <mxPoint x="614.5" y="260" as="targetPoint" />
            <Array as="points">
              <mxPoint x="614.5" y="260" />
            </Array>
          </mxGeometry>
        </mxCell>
        <mxCell id="gE6TN4jImQfPaR2NvSKT-24" value="" style="endArrow=classic;html=1;rounded=0;" edge="1" parent="1">
          <mxGeometry width="50" height="50" relative="1" as="geometry">
            <mxPoint x="614.5" y="360" as="sourcePoint" />
            <mxPoint x="614.5" y="400" as="targetPoint" />
            <Array as="points">
              <mxPoint x="614.5" y="400" />
            </Array>
          </mxGeometry>
        </mxCell>
        <mxCell id="gE6TN4jImQfPaR2NvSKT-27" value="Sai" style="text;strokeColor=none;align=center;fillColor=none;html=1;verticalAlign=middle;whiteSpace=wrap;rounded=0;" vertex="1" parent="1">
          <mxGeometry x="625" y="360" width="60" height="30" as="geometry" />
        </mxCell>
        <mxCell id="gE6TN4jImQfPaR2NvSKT-28" value="" style="endArrow=none;html=1;rounded=0;" edge="1" parent="1">
          <mxGeometry width="50" height="50" relative="1" as="geometry">
            <mxPoint x="510" y="375" as="sourcePoint" />
            <mxPoint x="615" y="374.5" as="targetPoint" />
          </mxGeometry>
        </mxCell>
        <mxCell id="gE6TN4jImQfPaR2NvSKT-29" value="" style="endArrow=none;html=1;rounded=0;" edge="1" parent="1">
          <mxGeometry width="50" height="50" relative="1" as="geometry">
            <mxPoint x="510" y="375" as="sourcePoint" />
            <mxPoint x="510" y="245" as="targetPoint" />
          </mxGeometry>
        </mxCell>
        <mxCell id="gE6TN4jImQfPaR2NvSKT-30" value="" style="endArrow=classic;html=1;rounded=0;" edge="1" parent="1">
          <mxGeometry width="50" height="50" relative="1" as="geometry">
            <mxPoint x="510" y="250" as="sourcePoint" />
            <mxPoint x="610" y="250" as="targetPoint" />
          </mxGeometry>
        </mxCell>
        <mxCell id="gE6TN4jImQfPaR2NvSKT-31" value="Đúng" style="text;strokeColor=none;align=center;fillColor=none;html=1;verticalAlign=middle;whiteSpace=wrap;rounded=0;" vertex="1" parent="1">
          <mxGeometry x="450" y="260" width="60" height="30" as="geometry" />
        </mxCell>
        <mxCell id="gE6TN4jImQfPaR2NvSKT-32" value="" style="endArrow=classic;html=1;rounded=0;" edge="1" parent="1">
          <mxGeometry width="50" height="50" relative="1" as="geometry">
            <mxPoint x="614.5" y="460" as="sourcePoint" />
            <mxPoint x="614.5" y="500" as="targetPoint" />
            <Array as="points">
              <mxPoint x="614.5" y="500" />
            </Array>
          </mxGeometry>
        </mxCell>
        <mxCell id="gE6TN4jImQfPaR2NvSKT-33" value="" style="endArrow=classic;html=1;rounded=0;" edge="1" parent="1">
          <mxGeometry width="50" height="50" relative="1" as="geometry">
            <mxPoint x="617" y="560" as="sourcePoint" />
            <mxPoint x="617" y="600" as="targetPoint" />
            <Array as="points">
              <mxPoint x="617" y="600" />
            </Array>
          </mxGeometry>
        </mxCell>
      </root>
    </mxGraphModel>
  </diagram>
  <diagram id="EOiicnfd7-94OcEINY0_" name="Timer 0 và timer 1">
    <mxGraphModel grid="1" page="1" gridSize="10" guides="1" tooltips="1" connect="1" arrows="1" fold="1" pageScale="1" pageWidth="850" pageHeight="1100" math="0" shadow="0">
      <root>
        <mxCell id="0" />
        <mxCell id="1" parent="0" />
        <mxCell id="LpxrQqaheyBI3VZGXIrz-1" value="" style="swimlane;startSize=0;" vertex="1" parent="1">
          <mxGeometry x="150" y="130" width="250" height="470" as="geometry">
            <mxRectangle x="470" y="300" width="50" height="40" as="alternateBounds" />
          </mxGeometry>
        </mxCell>
        <mxCell id="sh8hGTlPlMD5WxRinXjF-3" style="edgeStyle=orthogonalEdgeStyle;rounded=0;orthogonalLoop=1;jettySize=auto;html=1;exitX=0.5;exitY=1;exitDx=0;exitDy=0;entryX=0.5;entryY=0;entryDx=0;entryDy=0;" edge="1" parent="LpxrQqaheyBI3VZGXIrz-1" source="LpxrQqaheyBI3VZGXIrz-2" target="j2HTBi2zOAMufh-bLNFM-1">
          <mxGeometry relative="1" as="geometry" />
        </mxCell>
        <mxCell id="LpxrQqaheyBI3VZGXIrz-2" value="PUSH PSW (đẩy trạng thái PSW vào ngăn xêp&amp;nbsp;" style="whiteSpace=wrap;html=1;" vertex="1" parent="LpxrQqaheyBI3VZGXIrz-1">
          <mxGeometry x="41.879999999999995" y="40" width="170" height="40" as="geometry" />
        </mxCell>
        <mxCell id="sh8hGTlPlMD5WxRinXjF-4" style="edgeStyle=orthogonalEdgeStyle;rounded=0;orthogonalLoop=1;jettySize=auto;html=1;exitX=0.5;exitY=1;exitDx=0;exitDy=0;entryX=0.5;entryY=0;entryDx=0;entryDy=0;" edge="1" parent="LpxrQqaheyBI3VZGXIrz-1" source="j2HTBi2zOAMufh-bLNFM-1" target="z_6YHaMs3MBJIBFANAgg-1">
          <mxGeometry relative="1" as="geometry" />
        </mxCell>
        <mxCell id="j2HTBi2zOAMufh-bLNFM-1" value="Nạp giá trị ban đầu cho Timer0&lt;div&gt;&lt;div&gt;MOV TH0, #236&lt;/div&gt;&lt;div&gt;MOV TL0, #236&lt;/div&gt;&lt;/div&gt;" style="whiteSpace=wrap;html=1;" vertex="1" parent="LpxrQqaheyBI3VZGXIrz-1">
          <mxGeometry x="39.38" y="100" width="175" height="50" as="geometry" />
        </mxCell>
        <mxCell id="z_6YHaMs3MBJIBFANAgg-1" value="Xòa cờ tràn Timer0:&lt;br&gt;CLR TF0" style="whiteSpace=wrap;html=1;" vertex="1" parent="LpxrQqaheyBI3VZGXIrz-1">
          <mxGeometry x="41.88" y="170" width="167.5" height="40" as="geometry" />
        </mxCell>
        <mxCell id="sh8hGTlPlMD5WxRinXjF-6" style="edgeStyle=orthogonalEdgeStyle;rounded=0;orthogonalLoop=1;jettySize=auto;html=1;exitX=0.5;exitY=1;exitDx=0;exitDy=0;entryX=0.5;entryY=0;entryDx=0;entryDy=0;" edge="1" parent="LpxrQqaheyBI3VZGXIrz-1" source="z_6YHaMs3MBJIBFANAgg-2" target="yaZZkVj5IAfztiaXtntJ-1">
          <mxGeometry relative="1" as="geometry" />
        </mxCell>
        <mxCell id="z_6YHaMs3MBJIBFANAgg-2" value="Đảo trạng thái chân CLK của ADC:&lt;div&gt;CPL ADC0808_CLK&lt;br&gt;&lt;/div&gt;" style="whiteSpace=wrap;html=1;" vertex="1" parent="LpxrQqaheyBI3VZGXIrz-1">
          <mxGeometry x="43.75" y="250" width="166.25" height="50" as="geometry" />
        </mxCell>
        <mxCell id="z_6YHaMs3MBJIBFANAgg-3" value="&lt;font style=&quot;font-size: 14px;&quot;&gt;&lt;b&gt;TIMER0_ISR&lt;/b&gt;&lt;/font&gt;" style="text;html=1;align=center;verticalAlign=middle;resizable=0;points=[];autosize=1;strokeColor=none;fillColor=none;" vertex="1" parent="LpxrQqaheyBI3VZGXIrz-1">
          <mxGeometry x="20" width="110" height="30" as="geometry" />
        </mxCell>
        <mxCell id="sh8hGTlPlMD5WxRinXjF-7" style="edgeStyle=orthogonalEdgeStyle;rounded=0;orthogonalLoop=1;jettySize=auto;html=1;exitX=0.5;exitY=1;exitDx=0;exitDy=0;entryX=0.5;entryY=0;entryDx=0;entryDy=0;" edge="1" parent="LpxrQqaheyBI3VZGXIrz-1" source="yaZZkVj5IAfztiaXtntJ-1" target="G52jhnT9s4rMRb7WHPug-1">
          <mxGeometry relative="1" as="geometry" />
        </mxCell>
        <mxCell id="yaZZkVj5IAfztiaXtntJ-1" value="&lt;div&gt;Lấy lại PSW và khôi phục lại trạng thái ban đầu:&lt;/div&gt;&lt;div&gt;POP PSW&lt;/div&gt;" style="whiteSpace=wrap;html=1;" vertex="1" parent="LpxrQqaheyBI3VZGXIrz-1">
          <mxGeometry x="43.75" y="320" width="160" height="50" as="geometry" />
        </mxCell>
        <mxCell id="G52jhnT9s4rMRb7WHPug-1" value="&lt;div&gt;Trả lại cho chương trình chính từ ngắt (RETI)&lt;/div&gt;" style="whiteSpace=wrap;html=1;" vertex="1" parent="LpxrQqaheyBI3VZGXIrz-1">
          <mxGeometry x="46.25" y="390" width="157.5" height="60" as="geometry" />
        </mxCell>
        <mxCell id="owmJuVIUe43CMueXNrA--1" style="edgeStyle=orthogonalEdgeStyle;rounded=0;orthogonalLoop=1;jettySize=auto;html=1;exitX=0.5;exitY=1;exitDx=0;exitDy=0;entryX=0.484;entryY=-0.013;entryDx=0;entryDy=0;entryPerimeter=0;" edge="1" parent="LpxrQqaheyBI3VZGXIrz-1" source="z_6YHaMs3MBJIBFANAgg-1" target="z_6YHaMs3MBJIBFANAgg-2">
          <mxGeometry relative="1" as="geometry" />
        </mxCell>
        <mxCell id="owmJuVIUe43CMueXNrA--2" value="" style="swimlane;startSize=0;" vertex="1" parent="1">
          <mxGeometry x="440" y="130" width="270" height="550" as="geometry">
            <mxRectangle x="470" y="300" width="50" height="40" as="alternateBounds" />
          </mxGeometry>
        </mxCell>
        <mxCell id="owmJuVIUe43CMueXNrA--3" style="edgeStyle=orthogonalEdgeStyle;rounded=0;orthogonalLoop=1;jettySize=auto;html=1;exitX=0.5;exitY=1;exitDx=0;exitDy=0;entryX=0.5;entryY=0;entryDx=0;entryDy=0;" edge="1" parent="owmJuVIUe43CMueXNrA--2" source="owmJuVIUe43CMueXNrA--4" target="owmJuVIUe43CMueXNrA--6">
          <mxGeometry relative="1" as="geometry" />
        </mxCell>
        <mxCell id="SGXp5_FXfg5sG-74gjOP-3" style="edgeStyle=orthogonalEdgeStyle;rounded=0;orthogonalLoop=1;jettySize=auto;html=1;exitX=1;exitY=0.5;exitDx=0;exitDy=0;entryX=0.5;entryY=0;entryDx=0;entryDy=0;" edge="1" parent="owmJuVIUe43CMueXNrA--2" source="Hs1TmXWxSJHF10fjLyQI-1" target="2NvEiQN8F4eXgpr0h1Au-2">
          <mxGeometry relative="1" as="geometry" />
        </mxCell>
        <mxCell id="Hs1TmXWxSJHF10fjLyQI-1" value="R4 = 200 ?&lt;div&gt;(200 lần lặp?)&lt;/div&gt;" style="rhombus;whiteSpace=wrap;html=1;" vertex="1" parent="owmJuVIUe43CMueXNrA--2">
          <mxGeometry x="60" y="320" width="107.5" height="80" as="geometry" />
        </mxCell>
        <mxCell id="owmJuVIUe43CMueXNrA--4" value="Xóa cờ tràn Timer1:&lt;div&gt;CLR TF1&lt;/div&gt;" style="whiteSpace=wrap;html=1;" vertex="1" parent="owmJuVIUe43CMueXNrA--2">
          <mxGeometry x="41.879999999999995" y="40" width="170" height="40" as="geometry" />
        </mxCell>
        <mxCell id="owmJuVIUe43CMueXNrA--5" style="edgeStyle=orthogonalEdgeStyle;rounded=0;orthogonalLoop=1;jettySize=auto;html=1;exitX=0.5;exitY=1;exitDx=0;exitDy=0;entryX=0.5;entryY=0;entryDx=0;entryDy=0;" edge="1" parent="owmJuVIUe43CMueXNrA--2" source="owmJuVIUe43CMueXNrA--6" target="owmJuVIUe43CMueXNrA--7">
          <mxGeometry relative="1" as="geometry" />
        </mxCell>
        <mxCell id="owmJuVIUe43CMueXNrA--6" value="Nạp lại giá trị cho Timer1&lt;div&gt;&lt;div&gt;MOV TH0, #03CH&lt;/div&gt;&lt;div&gt;MOV TL0, #0B0H&lt;/div&gt;&lt;/div&gt;" style="whiteSpace=wrap;html=1;" vertex="1" parent="owmJuVIUe43CMueXNrA--2">
          <mxGeometry x="39.38" y="100" width="175" height="50" as="geometry" />
        </mxCell>
        <mxCell id="owmJuVIUe43CMueXNrA--7" value="Xòa cờ tràn Timer0:&lt;br&gt;CLR TF0" style="whiteSpace=wrap;html=1;" vertex="1" parent="owmJuVIUe43CMueXNrA--2">
          <mxGeometry x="41.88" y="170" width="167.5" height="40" as="geometry" />
        </mxCell>
        <mxCell id="owmJuVIUe43CMueXNrA--8" style="edgeStyle=orthogonalEdgeStyle;rounded=0;orthogonalLoop=1;jettySize=auto;html=1;exitX=0.5;exitY=1;exitDx=0;exitDy=0;entryX=0.5;entryY=0;entryDx=0;entryDy=0;" edge="1" parent="owmJuVIUe43CMueXNrA--2" source="owmJuVIUe43CMueXNrA--9">
          <mxGeometry relative="1" as="geometry" />
        </mxCell>
        <mxCell id="SGXp5_FXfg5sG-74gjOP-1" style="edgeStyle=orthogonalEdgeStyle;rounded=0;orthogonalLoop=1;jettySize=auto;html=1;exitX=0.5;exitY=1;exitDx=0;exitDy=0;entryX=0.5;entryY=0;entryDx=0;entryDy=0;" edge="1" parent="owmJuVIUe43CMueXNrA--2" source="owmJuVIUe43CMueXNrA--9" target="Hs1TmXWxSJHF10fjLyQI-1">
          <mxGeometry relative="1" as="geometry" />
        </mxCell>
        <mxCell id="owmJuVIUe43CMueXNrA--9" value="&lt;div&gt;Tăng giá tri R4&lt;/div&gt;" style="whiteSpace=wrap;html=1;" vertex="1" parent="owmJuVIUe43CMueXNrA--2">
          <mxGeometry x="43.75" y="250" width="166.25" height="50" as="geometry" />
        </mxCell>
        <mxCell id="owmJuVIUe43CMueXNrA--10" value="&lt;font style=&quot;font-size: 14px;&quot;&gt;&lt;b&gt;timer1_isr&lt;/b&gt;&lt;/font&gt;" style="text;html=1;align=center;verticalAlign=middle;resizable=0;points=[];autosize=1;strokeColor=none;fillColor=none;" vertex="1" parent="owmJuVIUe43CMueXNrA--2">
          <mxGeometry x="15" width="90" height="30" as="geometry" />
        </mxCell>
        <mxCell id="owmJuVIUe43CMueXNrA--14" style="edgeStyle=orthogonalEdgeStyle;rounded=0;orthogonalLoop=1;jettySize=auto;html=1;exitX=0.5;exitY=1;exitDx=0;exitDy=0;entryX=0.484;entryY=-0.013;entryDx=0;entryDy=0;entryPerimeter=0;" edge="1" parent="owmJuVIUe43CMueXNrA--2" source="owmJuVIUe43CMueXNrA--7" target="owmJuVIUe43CMueXNrA--9">
          <mxGeometry relative="1" as="geometry" />
        </mxCell>
        <mxCell id="2NvEiQN8F4eXgpr0h1Au-1" value="EXIT_ISR:&lt;div&gt;RETI&lt;/div&gt;" style="rounded=0;whiteSpace=wrap;html=1;" vertex="1" parent="owmJuVIUe43CMueXNrA--2">
          <mxGeometry x="15" y="400" width="85" height="40" as="geometry" />
        </mxCell>
        <mxCell id="SGXp5_FXfg5sG-74gjOP-4" style="edgeStyle=orthogonalEdgeStyle;rounded=0;orthogonalLoop=1;jettySize=auto;html=1;exitX=0.5;exitY=1;exitDx=0;exitDy=0;entryX=0.5;entryY=0;entryDx=0;entryDy=0;" edge="1" parent="owmJuVIUe43CMueXNrA--2" source="2NvEiQN8F4eXgpr0h1Au-2" target="2NvEiQN8F4eXgpr0h1Au-3">
          <mxGeometry relative="1" as="geometry" />
        </mxCell>
        <mxCell id="2NvEiQN8F4eXgpr0h1Au-2" value="Reset biến đếm R4:&lt;div&gt;MOV R4, #00H&lt;/div&gt;" style="rounded=0;whiteSpace=wrap;html=1;" vertex="1" parent="owmJuVIUe43CMueXNrA--2">
          <mxGeometry x="150" y="400" width="110" height="40" as="geometry" />
        </mxCell>
        <mxCell id="2NvEiQN8F4eXgpr0h1Au-3" value="Tăng biến hiệu ứng:&lt;div&gt;INC R5&lt;/div&gt;" style="rounded=0;whiteSpace=wrap;html=1;" vertex="1" parent="owmJuVIUe43CMueXNrA--2">
          <mxGeometry x="150" y="490" width="110" height="40" as="geometry" />
        </mxCell>
        <mxCell id="2NvEiQN8F4eXgpr0h1Au-4" value="&lt;i&gt;Thực hiện hành động sau 10 giây&lt;/i&gt;" style="text;html=1;align=center;verticalAlign=middle;whiteSpace=wrap;rounded=0;" vertex="1" parent="owmJuVIUe43CMueXNrA--2">
          <mxGeometry x="100" y="450" width="105" height="30" as="geometry" />
        </mxCell>
        <mxCell id="SGXp5_FXfg5sG-74gjOP-2" style="edgeStyle=orthogonalEdgeStyle;rounded=0;orthogonalLoop=1;jettySize=auto;html=1;exitX=0;exitY=0.5;exitDx=0;exitDy=0;entryX=0.25;entryY=0;entryDx=0;entryDy=0;" edge="1" parent="owmJuVIUe43CMueXNrA--2" source="Hs1TmXWxSJHF10fjLyQI-1" target="2NvEiQN8F4eXgpr0h1Au-1">
          <mxGeometry relative="1" as="geometry" />
        </mxCell>
        <mxCell id="7nRkwtJufTnu_rk8s25X-1" value="Sai" style="text;html=1;align=center;verticalAlign=middle;whiteSpace=wrap;rounded=0;" vertex="1" parent="owmJuVIUe43CMueXNrA--2">
          <mxGeometry x="15" y="330" width="60" height="30" as="geometry" />
        </mxCell>
        <mxCell id="7nRkwtJufTnu_rk8s25X-2" value="Đúng" style="text;html=1;align=center;verticalAlign=middle;whiteSpace=wrap;rounded=0;" vertex="1" parent="owmJuVIUe43CMueXNrA--2">
          <mxGeometry x="151.88" y="330" width="60" height="30" as="geometry" />
        </mxCell>
      </root>
    </mxGraphModel>
  </diagram>
  <diagram id="6nKkoXjUS1EX9jVoicB2" name="Hàm hiệu ứng">
    <mxGraphModel grid="1" page="1" gridSize="10" guides="1" tooltips="1" connect="1" arrows="1" fold="1" pageScale="1" pageWidth="850" pageHeight="1100" math="0" shadow="0">
      <root>
        <mxCell id="0" />
        <mxCell id="1" parent="0" />
        <mxCell id="-GZPW9nmNgNi5K_tUSbt-1" value="R5=0" style="rhombus;whiteSpace=wrap;html=1;" vertex="1" parent="1">
          <mxGeometry x="340" y="180" width="140" height="100" as="geometry" />
        </mxCell>
        <mxCell id="-GZPW9nmNgNi5K_tUSbt-2" value="" style="endArrow=classic;html=1;rounded=0;" edge="1" parent="1">
          <mxGeometry width="50" height="50" relative="1" as="geometry">
            <mxPoint x="409.5" y="280" as="sourcePoint" />
            <mxPoint x="409.5" y="350" as="targetPoint" />
          </mxGeometry>
        </mxCell>
        <mxCell id="9RSD4gFi0Qlg7n_xCjWQ-3" style="edgeStyle=orthogonalEdgeStyle;rounded=0;orthogonalLoop=1;jettySize=auto;html=1;exitX=0.5;exitY=1;exitDx=0;exitDy=0;entryX=0.5;entryY=0;entryDx=0;entryDy=0;fontFamily=Helvetica;fontSize=12;fontColor=default;" edge="1" parent="1" source="-GZPW9nmNgNi5K_tUSbt-3" target="7cX9XgyWV0wYbAwMRvrb-2">
          <mxGeometry relative="1" as="geometry" />
        </mxCell>
        <mxCell id="-GZPW9nmNgNi5K_tUSbt-3" value="CASE0" style="rounded=0;whiteSpace=wrap;html=1;" vertex="1" parent="1">
          <mxGeometry x="340" y="350" width="140" height="60" as="geometry" />
        </mxCell>
        <mxCell id="-GZPW9nmNgNi5K_tUSbt-5" value="" style="endArrow=none;html=1;rounded=0;" edge="1" parent="1" target="-GZPW9nmNgNi5K_tUSbt-6">
          <mxGeometry width="50" height="50" relative="1" as="geometry">
            <mxPoint x="280" y="229.5" as="sourcePoint" />
            <mxPoint x="340" y="229.5" as="targetPoint" />
            <Array as="points">
              <mxPoint x="340" y="230" />
              <mxPoint x="320" y="230" />
            </Array>
          </mxGeometry>
        </mxCell>
        <mxCell id="-GZPW9nmNgNi5K_tUSbt-6" value="CASE1" style="rounded=0;whiteSpace=wrap;html=1;" vertex="1" parent="1">
          <mxGeometry x="100" y="200" width="120" height="60" as="geometry" />
        </mxCell>
        <mxCell id="-GZPW9nmNgNi5K_tUSbt-7" value="Đúng" style="text;strokeColor=none;align=center;fillColor=none;html=1;verticalAlign=middle;whiteSpace=wrap;rounded=0;" vertex="1" parent="1">
          <mxGeometry x="425" y="300" width="60" height="30" as="geometry" />
        </mxCell>
        <mxCell id="-GZPW9nmNgNi5K_tUSbt-8" value="Sai" style="text;strokeColor=none;align=center;fillColor=none;html=1;verticalAlign=middle;whiteSpace=wrap;rounded=0;" vertex="1" parent="1">
          <mxGeometry x="260" y="190" width="60" height="30" as="geometry" />
        </mxCell>
        <mxCell id="9RSD4gFi0Qlg7n_xCjWQ-4" style="edgeStyle=orthogonalEdgeStyle;rounded=0;orthogonalLoop=1;jettySize=auto;html=1;exitX=0.5;exitY=1;exitDx=0;exitDy=0;entryX=0.5;entryY=0;entryDx=0;entryDy=0;fontFamily=Helvetica;fontSize=12;fontColor=default;" edge="1" parent="1" source="7cX9XgyWV0wYbAwMRvrb-2" target="7cX9XgyWV0wYbAwMRvrb-3">
          <mxGeometry relative="1" as="geometry" />
        </mxCell>
        <mxCell id="7cX9XgyWV0wYbAwMRvrb-2" value="&lt;span style=&quot;color: rgb(8, 28, 54); font-family: SegoeuiPc, &amp;quot;Segoe UI&amp;quot;, &amp;quot;San Francisco&amp;quot;, &amp;quot;Helvetica Neue&amp;quot;, Helvetica, &amp;quot;Lucida Grande&amp;quot;, Roboto, Ubuntu, Tahoma, &amp;quot;Microsoft Sans Serif&amp;quot;, Arial, sans-serif; font-size: 15px; letter-spacing: 0.2px; text-align: start; white-space-collapse: preserve; background-color: rgb(229, 239, 255);&quot;&gt;ADC0808_Read = 0&lt;/span&gt;" style="rounded=0;whiteSpace=wrap;html=1;strokeColor=default;align=center;verticalAlign=middle;fontFamily=Helvetica;fontSize=12;fontColor=default;fillColor=default;" vertex="1" parent="1">
          <mxGeometry x="350" y="450" width="120" height="60" as="geometry" />
        </mxCell>
        <mxCell id="9RSD4gFi0Qlg7n_xCjWQ-5" value="" style="edgeStyle=orthogonalEdgeStyle;rounded=0;orthogonalLoop=1;jettySize=auto;html=1;fontFamily=Helvetica;fontSize=12;fontColor=default;" edge="1" parent="1" source="7cX9XgyWV0wYbAwMRvrb-3" target="7cX9XgyWV0wYbAwMRvrb-5">
          <mxGeometry relative="1" as="geometry" />
        </mxCell>
        <mxCell id="7cX9XgyWV0wYbAwMRvrb-3" value="R0 = A" style="rounded=0;whiteSpace=wrap;html=1;strokeColor=default;align=center;verticalAlign=middle;fontFamily=Helvetica;fontSize=12;fontColor=default;fillColor=default;" vertex="1" parent="1">
          <mxGeometry x="350" y="530" width="120" height="60" as="geometry" />
        </mxCell>
        <mxCell id="9RSD4gFi0Qlg7n_xCjWQ-6" value="" style="edgeStyle=orthogonalEdgeStyle;rounded=0;orthogonalLoop=1;jettySize=auto;html=1;fontFamily=Helvetica;fontSize=12;fontColor=default;" edge="1" parent="1" source="7cX9XgyWV0wYbAwMRvrb-5" target="7cX9XgyWV0wYbAwMRvrb-7">
          <mxGeometry relative="1" as="geometry" />
        </mxCell>
        <mxCell id="7cX9XgyWV0wYbAwMRvrb-5" value="R6 = 12" style="rounded=0;whiteSpace=wrap;html=1;strokeColor=default;align=center;verticalAlign=middle;fontFamily=Helvetica;fontSize=12;fontColor=default;fillColor=default;" vertex="1" parent="1">
          <mxGeometry x="350" y="630" width="120" height="50" as="geometry" />
        </mxCell>
        <mxCell id="9RSD4gFi0Qlg7n_xCjWQ-7" value="" style="edgeStyle=orthogonalEdgeStyle;rounded=0;orthogonalLoop=1;jettySize=auto;html=1;fontFamily=Helvetica;fontSize=12;fontColor=default;" edge="1" parent="1" source="7cX9XgyWV0wYbAwMRvrb-7" target="LmwLp61gWKEGb5_viY-i-2">
          <mxGeometry relative="1" as="geometry" />
        </mxCell>
        <mxCell id="7cX9XgyWV0wYbAwMRvrb-7" value="C = 0" style="rounded=0;whiteSpace=wrap;html=1;strokeColor=default;align=center;verticalAlign=middle;fontFamily=Helvetica;fontSize=12;fontColor=default;fillColor=default;" vertex="1" parent="1">
          <mxGeometry x="350" y="720" width="120" height="60" as="geometry" />
        </mxCell>
        <mxCell id="LmwLp61gWKEGb5_viY-i-1" value="C=1" style="rhombus;whiteSpace=wrap;html=1;" vertex="1" parent="1">
          <mxGeometry x="350" y="920" width="120" height="90" as="geometry" />
        </mxCell>
        <mxCell id="9RSD4gFi0Qlg7n_xCjWQ-8" value="" style="edgeStyle=orthogonalEdgeStyle;rounded=0;orthogonalLoop=1;jettySize=auto;html=1;fontFamily=Helvetica;fontSize=12;fontColor=default;" edge="1" parent="1" source="LmwLp61gWKEGb5_viY-i-2" target="LmwLp61gWKEGb5_viY-i-1">
          <mxGeometry relative="1" as="geometry" />
        </mxCell>
        <mxCell id="LmwLp61gWKEGb5_viY-i-2" value="SUBB A,R6" style="rounded=0;whiteSpace=wrap;html=1;" vertex="1" parent="1">
          <mxGeometry x="350" y="830" width="120" height="60" as="geometry" />
        </mxCell>
        <mxCell id="LmwLp61gWKEGb5_viY-i-3" value="" style="endArrow=none;html=1;rounded=0;" edge="1" parent="1">
          <mxGeometry width="50" height="50" relative="1" as="geometry">
            <mxPoint x="470" y="964.5" as="sourcePoint" />
            <mxPoint x="540" y="964.5" as="targetPoint" />
          </mxGeometry>
        </mxCell>
        <mxCell id="LmwLp61gWKEGb5_viY-i-4" value="Sai" style="text;strokeColor=none;align=center;fillColor=none;html=1;verticalAlign=middle;whiteSpace=wrap;rounded=0;" vertex="1" parent="1">
          <mxGeometry x="425" y="1010" width="60" height="30" as="geometry" />
        </mxCell>
        <mxCell id="LmwLp61gWKEGb5_viY-i-5" value="Đúng" style="text;strokeColor=none;align=center;fillColor=none;html=1;verticalAlign=middle;whiteSpace=wrap;rounded=0;" vertex="1" parent="1">
          <mxGeometry x="470" y="920" width="60" height="30" as="geometry" />
        </mxCell>
        <mxCell id="LmwLp61gWKEGb5_viY-i-6" value="P0=0&lt;div&gt;P1=0&lt;/div&gt;" style="rounded=0;whiteSpace=wrap;html=1;" vertex="1" parent="1">
          <mxGeometry x="540" y="935" width="120" height="60" as="geometry" />
        </mxCell>
        <mxCell id="LmwLp61gWKEGb5_viY-i-7" value="main_loop" style="rounded=0;whiteSpace=wrap;html=1;" vertex="1" parent="1">
          <mxGeometry x="540" y="1060" width="120" height="60" as="geometry" />
        </mxCell>
        <mxCell id="LmwLp61gWKEGb5_viY-i-8" value="" style="endArrow=classic;html=1;rounded=0;" edge="1" parent="1">
          <mxGeometry width="50" height="50" relative="1" as="geometry">
            <mxPoint x="599.5" y="995" as="sourcePoint" />
            <mxPoint x="599.5" y="1055" as="targetPoint" />
          </mxGeometry>
        </mxCell>
        <mxCell id="LmwLp61gWKEGb5_viY-i-9" value="" style="endArrow=classic;html=1;rounded=0;" edge="1" parent="1">
          <mxGeometry width="50" height="50" relative="1" as="geometry">
            <mxPoint x="409.5" y="1010" as="sourcePoint" />
            <mxPoint x="409.5" y="1070" as="targetPoint" />
          </mxGeometry>
        </mxCell>
        <mxCell id="LmwLp61gWKEGb5_viY-i-11" value="A=R0&lt;div&gt;R6=18&amp;nbsp;&lt;/div&gt;&lt;div&gt;CLR C&lt;/div&gt;" style="rounded=0;whiteSpace=wrap;html=1;" vertex="1" parent="1">
          <mxGeometry x="350" y="1190" width="120" height="60" as="geometry" />
        </mxCell>
        <mxCell id="LmwLp61gWKEGb5_viY-i-12" value="CASE0_2" style="rounded=0;whiteSpace=wrap;html=1;" vertex="1" parent="1">
          <mxGeometry x="340" y="1070" width="140" height="60" as="geometry" />
        </mxCell>
        <mxCell id="LmwLp61gWKEGb5_viY-i-13" value="" style="endArrow=classic;html=1;rounded=0;" edge="1" parent="1">
          <mxGeometry width="50" height="50" relative="1" as="geometry">
            <mxPoint x="409.5" y="1130" as="sourcePoint" />
            <mxPoint x="409.5" y="1190" as="targetPoint" />
          </mxGeometry>
        </mxCell>
        <mxCell id="9RSD4gFi0Qlg7n_xCjWQ-9" value="C = 2" style="rounded=0;whiteSpace=wrap;html=1;strokeColor=default;align=center;verticalAlign=middle;fontFamily=Helvetica;fontSize=12;fontColor=default;fillColor=default;" vertex="1" parent="1">
          <mxGeometry x="350" y="1320" width="120" height="60" as="geometry" />
        </mxCell>
      </root>
    </mxGraphModel>
  </diagram>
  <diagram id="CRivTJ3G9T8zBhU5CBSY" name="Hàm hiệu ứng 1">
    <mxGraphModel grid="1" page="1" gridSize="10" guides="1" tooltips="1" connect="1" arrows="1" fold="1" pageScale="1" pageWidth="850" pageHeight="1100" math="0" shadow="0">
      <root>
        <mxCell id="0" />
        <mxCell id="1" parent="0" />
      </root>
    </mxGraphModel>
  </diagram>
</mxfile>
